<?xml version="1.0" standalone="no"?>
<!DOCTYPE svg PUBLIC "-//W3C//DTD SVG 20010904//EN"
 "http://www.w3.org/TR/2001/REC-SVG-20010904/DTD/svg10.dtd">
<svg version="1.0" xmlns="http://www.w3.org/2000/svg"
 width="300.000000pt" height="300.000000pt" viewBox="0 0 300.000000 300.000000"
 preserveAspectRatio="xMidYMid meet">

<g transform="translate(0.000000,300.000000) scale(0.100000,-0.100000)"
fill="#000000" stroke="none">
<path d="M1655 2755 c10 -46 41 -108 67 -131 44 -40 49 -36 12 12 -20 27 -48
72 -61 99 -17 35 -22 41 -18 20z"/>
<path d="M1296 2724 c-18 -38 -71 -112 -91 -126 -6 -5 -6 -8 2 -8 30 0 121
131 111 161 -2 6 -12 -6 -22 -27z"/>
<path d="M734 2658 c-21 -75 -25 -226 -6 -280 15 -43 17 -43 227 -58 285 -20
681 -10 1082 26 l182 17 12 56 c14 65 1 203 -25 264 -13 33 -19 37 -49 37 -37
0 -147 -32 -185 -54 l-24 -13 56 -60 c51 -55 70 -83 48 -69 -5 3 -242 6 -528
7 -285 1 -531 5 -546 8 l-28 6 41 47 40 47 -50 26 c-58 29 -151 55 -197 55
-30 0 -32 -3 -50 -62z"/>
<path d="M608 2102 c-18 -42 -14 -283 6 -365 9 -38 16 -70 16 -71 0 -2 -84 -6
-187 -9 -197 -6 -421 -32 -438 -49 -7 -7 1 -9 25 -4 163 31 620 51 620 27 0
-5 3 -16 6 -24 4 -12 -14 -16 -103 -22 -207 -14 -543 -73 -543 -96 0 -6 4 -8
9 -5 40 25 413 82 574 88 76 3 78 2 96 -26 11 -16 42 -52 71 -82 l52 -53 -31
-38 c-17 -21 -31 -43 -31 -49 0 -8 -13 -10 -38 -7 -28 4 -43 0 -55 -12 -18
-18 -22 -61 -8 -84 9 -14 -11 -53 -46 -89 -21 -22 -15 -47 17 -70 37 -28 63
-28 84 1 12 15 18 18 22 9 3 -7 17 -25 30 -41 l24 -28 0 -422 1 -421 714 -2
715 -3 0 422 c0 232 -3 428 -6 437 -3 9 -15 16 -26 16 -12 0 -31 11 -44 25
-32 35 -100 35 -142 0 l-30 -25 -251 1 c-228 0 -272 5 -241 24 8 5 7 11 -1 21
-13 16 -19 17 -38 5 -12 -8 -12 -12 -2 -24 6 -9 8 -17 4 -20 -17 -10 -578 -5
-591 5 -10 9 -8 15 8 31 l22 19 -34 29 c-32 28 -32 29 -14 43 14 11 17 23 13
45 -5 24 1 40 35 86 23 30 47 54 52 52 6 -3 35 -13 63 -23 l53 -19 -37 -37
-37 -38 34 0 c19 0 52 -3 73 -7 40 -6 41 -10 22 -56 -7 -18 -2 -18 101 -13 60
3 136 5 169 5 96 -2 194 -2 275 0 41 0 122 -2 179 -5 98 -5 103 -5 96 13 -19
48 -2 59 94 62 l44 1 -36 31 c-21 17 -37 34 -37 38 0 3 23 14 50 24 117 42
237 137 277 221 16 35 17 36 67 31 28 -2 89 -7 136 -10 106 -7 310 -38 413
-63 42 -11 77 -16 77 -12 0 9 -152 45 -272 65 -48 8 -157 20 -243 27 -125 9
-155 14 -150 26 3 7 5 18 5 23 0 24 485 3 628 -27 19 -4 32 -2 32 3 0 20 -324
53 -529 53 -106 0 -122 2 -117 15 27 71 36 421 11 443 -6 6 -50 4 -110 -4
-166 -22 -559 -44 -798 -44 -103 0 -156 -3 -152 -10 8 -13 -8 -13 -21 -1 -5 5
-65 13 -134 16 -118 7 -129 6 -169 -15 -101 -51 -170 -154 -178 -266 -6 -69
10 -168 27 -179 5 -3 5 9 -1 27 -5 18 -9 62 -9 98 0 81 31 149 99 219 60 62
121 79 289 82 123 2 124 2 158 -26 99 -83 139 -235 94 -361 -31 -91 -86 -154
-171 -199 -69 -37 -79 -39 -159 -39 -124 0 -212 44 -284 143 -119 162 -70 397
102 498 l46 27 -159 18 c-88 9 -173 19 -188 22 -23 5 -30 1 -39 -22z m1380
-92 c82 -36 149 -122 172 -223 13 -61 -3 -186 -34 -251 -72 -156 -218 -206
-599 -206 -188 0 -312 11 -406 35 -68 18 -91 37 -28 23 124 -26 294 59 362
180 74 131 70 283 -10 402 -19 29 -35 53 -35 54 0 0 28 0 62 -2 35 -1 110 2
168 7 159 15 286 8 348 -19z m-1117 -83 c-10 -9 -11 -8 -5 6 3 10 9 15 12 12
3 -3 0 -11 -7 -18z m-31 -387 c6 -11 8 -20 6 -20 -3 0 -10 9 -16 20 -6 11 -8
20 -6 20 3 0 10 -9 16 -20z m36 -98 c-18 -16 -18 -16 -6 6 6 13 14 21 18 18 3
-4 -2 -14 -12 -24z m-45 -19 c-12 -20 -14 -14 -5 12 4 9 9 14 11 11 3 -2 0
-13 -6 -23z m-44 -279 c-3 -3 -12 -4 -19 -1 -8 3 -5 6 6 6 11 1 17 -2 13 -5z
m33 -34 c13 -9 13 -11 0 -20 -8 -5 -18 -10 -22 -10 -11 0 -20 19 -13 30 8 12
16 12 35 0z m50 -114 c0 -20 -27 -27 -40 -11 -8 9 -8 15 0 20 6 3 7 11 4 17
-4 6 2 6 15 -1 11 -7 21 -18 21 -25z m68 1 c2 -12 -3 -17 -17 -17 -15 0 -21 6
-21 21 0 25 33 22 38 -4z m69 7 c6 -16 -15 -37 -29 -28 -4 3 -8 14 -8 25 0 23
28 26 37 3z m356 -175 c6 -9 7 -23 4 -32 -3 -9 -77 -62 -163 -119 -129 -84
-154 -104 -140 -113 166 -104 301 -203 304 -222 4 -30 -34 -56 -62 -41 -37 19
-364 239 -375 252 -23 28 6 55 186 174 190 126 222 139 246 101z m527 -102
c153 -102 186 -127 188 -149 3 -24 -14 -38 -186 -153 -194 -130 -222 -141
-246 -103 -18 29 0 46 157 150 81 54 147 101 146 105 0 5 -69 53 -152 108 -87
57 -153 108 -155 118 -5 24 16 47 42 47 11 0 104 -55 206 -123z"/>
<path d="M1860 1734 c-58 -7 -117 -15 -133 -17 -15 -1 -26 -7 -25 -12 2 -5 10
-9 18 -8 55 8 256 33 263 33 4 0 5 5 2 10 -3 6 -9 9 -13 9 -4 -1 -54 -7 -112
-15z"/>
<path d="M1474 1555 c-8 -21 2 -45 19 -45 20 0 40 27 33 45 -7 19 -45 20 -52
0z"/>
<path d="M1421 1460 c0 -51 86 -78 127 -40 12 11 22 28 22 37 0 11 -6 8 -21
-11 -29 -37 -80 -36 -108 2 -13 16 -20 21 -20 12z"/>
</g>
</svg>
